<svg width="77" height="77" viewBox="0 0 77 77" fill="none" xmlns="http://www.w3.org/2000/svg">
<rect width="77" height="77" rx="6" fill="#383767"/>
<path d="M59.1397 69.4567C64.8389 69.4567 69.459 64.8365 69.459 59.1371C69.459 53.4377 64.8389 48.8174 59.1397 48.8174C53.4404 48.8174 48.8203 53.4377 48.8203 59.1371C48.8203 64.8365 53.4404 69.4567 59.1397 69.4567Z" fill="#9291E0"/>
<path d="M59.1368 28.1806H38.5V48.8181H59.1368C64.8358 48.8181 69.4562 44.1976 69.4562 38.4984C69.4562 32.7992 64.8358 28.1787 59.1368 28.1787V28.1806Z" fill="#9291E0"/>
<path d="M38.499 69.4567C44.1983 69.4567 48.8184 64.8365 48.8184 59.1371C48.8184 53.4377 44.1983 48.8174 38.499 48.8174C32.7998 48.8174 28.1797 53.4377 28.1797 59.1371C28.1797 64.8365 32.7998 69.4567 38.499 69.4567Z" fill="white"/>
<path d="M28.1817 38.5003C28.1817 32.8012 23.5613 28.1807 17.8623 28.1807C12.1633 28.1807 7.54297 32.8012 7.54297 38.5003C7.54297 38.7367 7.5636 38.9693 7.57861 39.202H7.54297V59.1378H28.1798V39.202H28.1442C28.1592 38.9693 28.1817 38.7367 28.1817 38.5003Z" fill="#9291E0"/>
<path d="M38.499 48.82C44.1983 48.82 48.8184 44.1997 48.8184 38.5003C48.8184 32.8009 44.1983 28.1807 38.499 28.1807C32.7998 28.1807 28.1797 32.8009 28.1797 38.5003C28.1797 44.1997 32.7998 48.82 38.499 48.82Z" fill="white"/>
<path d="M17.8623 69.4567C23.5615 69.4567 28.1817 64.8365 28.1817 59.1371C28.1817 53.4377 23.5615 48.8174 17.8623 48.8174C12.1631 48.8174 7.54297 53.4377 7.54297 59.1371C7.54297 64.8365 12.1631 69.4567 17.8623 69.4567Z" fill="#9291E0"/>
<path d="M38.4992 7.54297H17.8623C12.1633 7.54297 7.54297 12.1635 7.54297 17.8626C7.54297 23.5618 12.1633 28.1823 17.8623 28.1823H38.4992C44.1982 28.1823 48.8185 23.5618 48.8185 17.8626C48.8185 12.1635 44.1982 7.54297 38.4992 7.54297Z" fill="white"/>
<path d="M59.1397 7.54297C53.4407 7.54297 48.8203 12.1635 48.8203 17.8626C48.8203 23.5618 53.4407 28.1823 59.1397 28.1823C64.8387 28.1823 69.459 23.5618 69.459 17.8626C69.459 12.1635 64.8387 7.54297 59.1397 7.54297ZM59.1397 25.0795C55.1534 25.0795 51.9212 21.8472 51.9212 17.8608C51.9212 13.8743 55.1534 10.6421 59.1397 10.6421C63.126 10.6421 66.3581 13.8743 66.3581 17.8608C66.3581 21.8472 63.126 25.0795 59.1397 25.0795Z" fill="white"/>
</svg>
